# xmcd
#
# Track frame offsets:
# 150
# 12997
# 23962
# 38650
# 53862
# 66125
# 78645
# 91375
# 102350
# 121500
# 132017
# 142700
# 153227
# 169420
# 181925
# 200050
# 217892
# 231575
# 246797
# 263085
# 276005
# 292020
# 306617
# 327022
#
# Disc length: 4567 seconds
#
#
# Revision: 0
# Processed by: cddbd v1.5.2PL0 Copyright (c) Steve Scherf et al.
# Submitted via: FreeRIP 2.945 
#
DISCID=5511d518
DTITLE=Queen of Soul - Arethra
DYEAR=1900
DGENRE=Blues
TTITLE0=nerver loved a man
TTITLE1=respect
TTITLE2=do right woman, do right man
TTITLE3=dr feel good
TTITLE4=baby i love you
TTITLE5=a natural woman
TTITLE6=chain of fools
TTITLE7=since you've been gone
TTITLE8=ain't no way
TTITLE9=save me
TTITLE10=the house that jack built
TTITLE11=think
TTITLE12=i say a little prayer
TTITLE13=she say
TTITLE14=dat dreaming
TTITLE15=call me
TTITLE16=don't play that song
TTITLE17=border song
TTITLE18=you are all i need to get by
TTITLE19=i am in love
TTITLE20=spanish harlem
TTITLE21=rock steady
TTITLE22=angel
TTITLE23=until you come back to me
EXTD=The Lost Music World
EXTT0=
EXTT1=
EXTT2=
EXTT3=
EXTT4=
EXTT5=
EXTT6=
EXTT7=
EXTT8=
EXTT9=
EXTT10=
EXTT11=
EXTT12=
EXTT13=
EXTT14=
EXTT15=
EXTT16=
EXTT17=
EXTT18=
EXTT19=
EXTT20=
EXTT21=
EXTT22=
EXTT23=
PLAYORDER=
